<svg id="svg" version="1.1" xmlns="http://www.w3.org/2000/svg" xmlns:xlink="http://www.w3.org/1999/xlink" width="400" height="400" viewBox="0, 0, 400,400"><g id="svgg"><path id="path0" d="M184.857 18.063 C 183.356 18.408,183.022 18.682,182.457 20.028 L 181.800 21.592 179.000 21.596 C 174.401 21.603,170.844 23.299,170.813 25.500 C 170.801 26.320,170.609 26.400,168.647 26.400 C 166.365 26.400,166.020 26.746,166.005 29.048 C 166.001 29.806,165.697 29.927,163.153 30.177 C 160.117 30.476,158.400 31.538,158.400 33.115 C 158.400 33.693,157.962 33.951,156.500 34.233 C 154.663 34.588,154.588 34.658,154.233 36.348 C 153.929 37.796,153.639 38.192,152.547 38.648 C 150.915 39.330,150.570 39.960,149.983 43.329 C 149.574 45.676,149.411 46.000,148.635 46.000 C 147.168 46.000,146.286 46.959,146.035 48.828 C 145.831 50.340,145.640 50.617,144.595 50.916 C 142.799 51.431,142.305 52.811,142.097 57.900 L 141.914 62.400 140.421 62.400 C 137.959 62.400,138.000 61.991,138.000 86.245 C 138.000 110.006,137.932 109.335,140.407 110.002 L 142.000 110.431 142.000 114.131 C 142.000 118.470,143.026 121.210,144.800 121.610 C 145.608 121.792,145.841 122.139,146.014 123.418 C 146.309 125.596,146.643 126.000,148.154 126.000 C 149.448 126.000,149.467 126.028,149.941 128.600 C 150.635 132.369,151.009 133.109,152.536 133.748 C 153.621 134.201,153.975 134.634,154.260 135.859 C 154.584 137.252,154.799 137.455,156.509 137.971 C 157.968 138.411,158.401 138.731,158.406 139.371 C 158.419 141.050,161.167 142.382,164.647 142.395 C 165.806 142.400,165.910 142.517,166.117 144.058 C 166.379 146.010,166.845 146.386,169.017 146.394 C 170.491 146.399,170.669 146.515,171.017 147.687 C 171.544 149.460,174.198 150.396,178.700 150.398 C 181.912 150.400,182.000 150.425,182.000 151.356 C 182.000 153.695,182.935 154.077,188.817 154.141 L 194.200 154.200 194.338 153.200 C 194.707 150.537,196.584 149.841,201.953 150.378 C 204.965 150.679,207.459 150.683,210.305 150.391 C 215.447 149.863,216.904 150.330,217.926 152.833 L 218.600 154.485 223.443 154.287 C 229.150 154.054,230.000 153.730,230.000 151.786 L 230.000 150.400 233.500 150.368 C 238.294 150.324,240.845 149.456,241.346 147.700 C 241.688 146.498,241.843 146.400,243.396 146.400 C 245.411 146.400,246.400 145.501,246.400 143.669 C 246.400 142.520,246.516 142.400,247.623 142.400 C 250.992 142.400,253.997 140.919,254.002 139.256 C 254.003 138.825,254.656 138.394,255.902 138.000 C 257.687 137.436,257.812 137.305,258.000 135.800 C 258.181 134.354,258.338 134.166,259.640 133.844 C 261.405 133.408,262.000 132.058,262.000 128.494 L 262.000 126.044 263.900 125.922 L 265.800 125.800 265.921 123.927 C 266.030 122.228,266.149 122.031,267.193 121.802 C 269.092 121.384,270.307 118.444,270.694 113.331 L 270.912 110.442 272.401 109.846 C 274.453 109.025,274.400 109.664,274.400 85.730 C 274.400 62.536,274.386 62.400,272.049 62.400 L 270.918 62.400 270.670 58.900 C 270.292 53.569,269.039 50.800,267.004 50.800 C 266.067 50.800,266.000 50.668,266.000 48.814 C 266.000 46.595,265.413 46.000,263.226 46.000 L 262.000 46.000 262.000 43.276 C 262.000 40.158,261.523 39.246,259.545 38.583 C 258.388 38.196,258.172 37.916,258.000 36.576 C 257.789 34.932,256.698 34.018,254.932 34.006 C 254.280 34.001,253.993 33.677,253.779 32.706 C 253.386 30.915,252.645 30.498,249.300 30.181 L 246.400 29.906 246.400 28.633 C 246.400 26.890,245.769 26.400,243.520 26.400 C 241.781 26.400,241.600 26.313,241.600 25.476 C 241.600 23.221,238.047 21.601,233.100 21.600 L 230.000 21.600 230.000 20.409 C 230.000 17.783,230.210 17.808,207.218 17.731 C 194.610 17.689,185.923 17.818,184.857 18.063 " stroke="none" fill="#046bfb" fill-rule="evenodd"></path><path id="path1" d="M196.099 153.089 C 193.785 153.876,193.941 150.263,194.100 199.411 C 194.255 247.253,194.137 244.974,196.601 247.754 L 197.977 249.307 200.443 247.024 C 205.524 242.320,207.667 241.921,211.652 244.938 C 212.569 245.632,213.552 246.372,213.836 246.583 C 214.520 247.090,215.872 245.865,216.676 244.008 C 218.415 239.994,218.390 240.675,218.395 196.346 L 218.400 154.091 216.900 153.353 C 214.877 152.357,198.850 152.153,196.099 153.089 " stroke="none" fill="#f30507" fill-rule="evenodd"></path><path id="path2" d="M194.120 240.800 C 194.120 242.010,194.195 242.505,194.287 241.900 C 194.378 241.295,194.378 240.305,194.287 239.700 C 194.195 239.095,194.120 239.590,194.120 240.800 M217.830 240.583 C 217.193 243.976,214.922 247.388,213.836 246.583 C 213.552 246.372,212.569 245.632,211.652 244.938 C 207.664 241.919,205.525 242.319,200.432 247.034 L 197.955 249.328 196.678 247.813 C 195.975 246.980,195.170 245.737,194.888 245.049 C 194.433 243.938,194.397 244.201,194.558 247.441 C 194.695 250.177,195.005 251.719,195.805 253.641 C 197.557 257.851,197.401 257.856,201.834 253.458 C 206.707 248.625,207.210 248.585,211.860 252.668 C 214.312 254.821,214.451 254.886,215.020 254.160 C 216.811 251.876,217.819 248.292,218.251 242.671 C 218.522 239.149,218.303 238.062,217.830 240.583 " stroke="none" fill="#5e0404" fill-rule="evenodd"></path><path id="path3" d="M195.959 150.914 C 195.212 151.416,194.542 152.226,194.472 152.714 C 194.321 153.759,194.273 153.749,196.250 153.058 C 198.794 152.170,214.035 152.283,216.500 153.209 C 218.637 154.012,218.635 154.014,217.773 152.349 C 216.736 150.342,215.060 149.906,210.266 150.393 C 207.489 150.676,204.944 150.682,202.382 150.412 C 197.350 149.882,197.512 149.869,195.959 150.914 " stroke="none" fill="#5456c6" fill-rule="evenodd"></path><path id="path4" d="M218.257 242.300 C 217.859 248.186,216.873 251.798,215.020 254.160 C 214.451 254.886,214.312 254.821,211.860 252.668 C 207.210 248.585,206.707 248.625,201.834 253.458 C 197.404 257.852,197.555 257.847,195.818 253.672 C 194.963 251.617,194.691 250.083,194.364 245.486 C 194.143 242.375,193.892 239.759,193.806 239.672 C 193.574 239.441,191.600 241.495,191.600 241.968 C 191.600 242.190,191.209 242.581,190.731 242.837 C 189.610 243.437,188.000 245.047,188.000 245.568 C 188.000 245.790,187.679 246.143,187.288 246.353 C 186.896 246.563,186.326 247.370,186.021 248.146 C 185.682 249.012,185.040 249.735,184.363 250.016 C 183.755 250.267,182.947 250.817,182.567 251.237 C 182.187 251.656,181.716 252.000,181.520 252.000 C 181.057 252.000,179.589 253.504,178.690 254.900 C 178.300 255.505,177.788 256.000,177.551 256.000 C 176.886 256.000,174.972 258.217,174.373 259.683 C 173.748 261.211,173.371 261.627,172.000 262.302 C 170.276 263.151,169.575 263.720,166.647 266.647 C 163.720 269.575,163.151 270.276,162.302 272.000 C 161.627 273.371,161.211 273.748,159.683 274.373 C 158.217 274.972,156.000 276.886,156.000 277.551 C 156.000 277.788,155.505 278.300,154.900 278.690 C 153.504 279.589,152.000 281.057,152.000 281.520 C 152.000 281.716,151.656 282.187,151.237 282.567 C 150.817 282.947,150.267 283.755,150.016 284.363 C 149.735 285.040,149.012 285.682,148.146 286.021 C 147.370 286.326,146.563 286.896,146.353 287.288 C 146.143 287.679,145.790 288.000,145.568 288.000 C 145.047 288.000,143.437 289.610,142.837 290.731 C 142.581 291.209,142.190 291.600,141.968 291.600 C 141.222 291.600,139.379 293.812,138.302 296.000 C 137.602 297.421,134.429 299.606,133.071 299.601 C 132.492 299.599,131.743 300.576,131.460 301.704 C 131.309 302.307,131.043 302.800,130.871 302.800 C 130.289 302.800,127.807 305.387,127.033 306.800 C 126.011 308.666,124.892 309.767,123.200 310.576 C 120.397 311.914,120.000 312.202,120.000 312.895 C 120.000 313.283,119.849 313.600,119.664 313.600 C 119.480 313.600,119.121 314.055,118.868 314.611 C 118.614 315.167,118.090 315.742,117.703 315.889 C 116.848 316.213,116.000 317.015,116.000 317.499 C 116.000 317.695,115.595 318.219,115.100 318.662 C 114.605 319.105,113.840 319.918,113.400 320.469 C 112.960 321.019,111.656 322.080,110.502 322.827 C 109.348 323.574,108.133 324.728,107.803 325.392 C 106.940 327.129,105.771 328.400,105.036 328.400 C 104.667 328.400,104.400 328.735,104.400 329.200 C 104.400 329.640,104.170 330.000,103.889 330.000 C 103.408 330.000,102.000 331.358,102.000 331.823 C 102.000 332.263,100.101 333.914,99.303 334.167 C 98.847 334.312,98.373 334.694,98.250 335.015 C 98.126 335.337,97.737 335.600,97.384 335.600 C 96.513 335.600,95.600 336.576,95.600 337.506 C 95.600 338.142,94.295 339.708,92.021 341.800 C 91.781 342.020,90.708 343.115,89.636 344.234 C 88.564 345.352,87.082 346.514,86.343 346.817 C 84.710 347.485,84.000 348.138,84.000 348.971 C 84.000 349.317,83.820 349.600,83.600 349.600 C 83.380 349.600,83.200 349.826,83.200 350.102 C 83.200 350.378,82.472 351.323,81.582 352.202 C 80.692 353.081,79.477 354.321,78.882 354.959 C 76.008 358.035,74.565 359.267,73.609 359.458 C 72.936 359.593,72.371 360.106,72.018 360.905 C 71.716 361.586,71.184 362.489,70.835 362.912 C 69.304 364.765,68.051 366.000,67.702 366.000 C 67.494 366.000,66.998 366.360,66.600 366.800 C 66.202 367.240,65.626 367.600,65.320 367.600 C 64.665 367.600,62.800 369.372,62.800 369.994 C 62.800 370.231,62.485 370.544,62.100 370.690 C 61.099 371.069,60.400 371.843,60.400 372.571 C 60.400 372.917,60.220 373.200,60.000 373.200 C 59.780 373.200,59.600 373.729,59.600 374.376 C 59.600 375.023,59.420 375.664,59.200 375.800 C 57.282 376.985,59.345 385.340,61.635 385.664 C 62.301 385.758,62.642 386.099,62.736 386.765 C 62.893 387.875,63.337 388.361,64.961 389.200 C 66.555 390.024,348.037 390.123,348.860 389.300 C 349.135 389.025,349.692 388.800,350.098 388.800 C 354.838 388.800,355.681 371.645,350.986 370.740 C 350.520 370.651,350.076 370.056,349.833 369.197 C 349.350 367.491,348.825 366.922,347.405 366.566 C 346.691 366.386,346.130 365.850,345.780 365.014 C 345.148 363.501,344.583 363.002,343.100 362.648 C 342.280 362.452,342.000 362.141,342.000 361.428 C 342.000 360.325,339.947 358.400,338.769 358.400 C 338.227 358.400,338.000 358.121,338.000 357.455 C 338.000 356.472,336.246 354.400,335.415 354.400 C 334.819 354.400,333.200 352.708,333.200 352.084 C 333.200 351.829,332.390 351.251,331.400 350.800 C 329.984 350.155,329.600 349.772,329.600 349.006 C 329.600 347.814,328.167 346.400,326.960 346.400 C 326.243 346.400,326.021 346.107,325.815 344.889 C 325.609 343.670,325.312 343.278,324.280 342.863 C 322.172 342.015,321.807 341.750,321.659 340.957 C 321.442 339.796,320.377 338.800,319.352 338.800 C 318.411 338.800,317.600 337.780,317.600 336.598 C 317.600 335.714,316.724 334.896,315.428 334.571 C 314.679 334.383,314.113 333.781,313.540 332.562 C 312.895 331.189,312.456 330.769,311.461 330.574 C 310.486 330.383,310.018 329.952,309.400 328.675 C 308.794 327.424,308.285 326.946,307.300 326.700 C 306.307 326.454,306.000 326.161,306.000 325.464 C 306.000 324.390,304.724 322.903,303.354 322.383 C 302.822 322.180,302.220 321.578,302.017 321.046 C 301.499 319.683,300.012 318.400,298.950 318.400 C 298.284 318.400,297.919 318.033,297.537 316.977 C 297.180 315.988,296.591 315.353,295.611 314.897 C 293.949 314.125,293.614 313.720,293.606 312.471 C 293.598 311.261,292.801 310.497,291.374 310.332 C 290.478 310.229,290.147 309.924,289.867 308.943 C 289.516 307.709,288.892 307.212,286.700 306.418 C 285.922 306.136,285.600 305.743,285.600 305.072 C 285.600 303.935,284.567 302.924,283.213 302.736 C 282.476 302.634,282.127 302.246,281.832 301.200 C 281.352 299.497,280.938 299.045,279.393 298.535 C 278.500 298.241,278.054 297.726,277.620 296.492 C 277.120 295.072,276.843 294.809,275.620 294.599 C 274.450 294.398,274.059 294.063,273.400 292.697 C 272.795 291.443,272.283 290.959,271.300 290.708 C 270.299 290.453,270.000 290.162,270.000 289.443 C 270.000 288.242,268.163 286.400,266.964 286.400 C 266.241 286.400,265.950 286.085,265.640 284.959 C 265.195 283.348,264.225 282.432,262.943 282.413 C 262.330 282.404,261.914 281.968,261.478 280.877 C 260.800 279.184,260.189 278.558,259.000 278.339 C 258.458 278.239,258.080 277.706,257.827 276.685 C 257.544 275.542,257.206 275.121,256.427 274.942 C 254.843 274.576,253.600 273.658,253.600 272.853 C 253.600 271.946,252.571 271.023,251.000 270.521 C 250.175 270.257,249.757 269.835,249.664 269.169 C 249.490 267.934,248.483 266.800,247.561 266.800 C 246.800 266.800,245.600 265.382,245.600 264.482 C 245.600 263.651,244.574 262.815,243.223 262.545 C 242.304 262.361,242.000 262.082,242.000 261.420 C 242.000 260.374,240.600 258.999,239.200 258.669 C 238.519 258.509,237.977 257.918,237.501 256.817 C 237.117 255.928,236.563 255.200,236.271 255.200 C 235.654 255.200,234.000 253.546,234.000 252.929 C 234.000 252.166,231.957 250.449,230.900 250.324 C 230.150 250.234,229.755 249.867,229.479 249.000 C 228.945 247.329,228.040 246.400,226.946 246.400 C 226.260 246.400,225.947 246.110,225.755 245.300 C 225.401 243.803,224.052 242.400,222.965 242.400 C 222.231 242.400,222.021 242.109,221.796 240.775 C 221.589 239.551,221.278 239.058,220.535 238.775 C 218.620 238.047,218.535 238.179,218.257 242.300 " stroke="none" fill="#040404" fill-rule="evenodd"></path></g></svg>